:SAMPLES-PER-SECOND 30
:FULLY-SPECIFIED
:DEGREES
161
root  -2.458577832 37.4595552 2.951955608 1.774993896 11.17900085 5.475006104
lowerback  15.59720039 -4.867919922 -8.806300163
upperback  5.277420044 -7.694590092 -0.6350889802
thorax  -1.961500049 -3.885099888 5.481299877
lowerneck  -0.03316570073 -5.418529987 -13.74629974
upperneck  8.385549545 -7.977429867 13.29660034
head  3.562730074 -3.968739986 6.053410053
lclavicle  0 -9.442270133e-015 7.951389973e-016
lhumerus  22.10370064 -24.04949951 76.19499969
lradius  1.914289858e-031 -2.967210538e-031 122.8280029
lwrist  -7.062250077e-031 -0 19.18110085
lhand  -1.496451383e-031 -27.76390076 20.11240005
lfingers  90 7.125020027 -90
lthumb  89.89689403 5.08795885 91.16245106
rclavicle  0 -9.442270133e-015 7.951389973e-016
rhumerus  -21.55809975 4.578670025 -70.39559937
rradius  -1.966397245e-031 2.932938102e-031 123.8399963
rwrist  0 -0 -12.73750019
rhand  -7.920061211e-032 -33.2840004 9.303460121
rfingers  -90 -7.125020027 -90
rthumb  -92.93752616 -24.25625642 -97.11982154
rfemur  -38.04230118 20.48069954 -6.024439812
rtibia  -0 0 55.40589905
rfoot  -0 -15.85060024 -11.14859962
rtoes  5.373923086 19.29304026 -105.8922705
lfemur  -1.657610059 -7.278190136 -5.505720139
ltibia  -0 0 46.51279831
lfoot  4.814569553e-032 -13.07369995 0.1011829972
ltoes  -4.250644065 -19.5611806 -102.515957
162
root  -2.489266621 37.08355521 2.794511112 1.246994019 11.51499939 4.712997437
lowerback  15.91149998 -4.999720097 -8.228190422
upperback  5.181049824 -7.808460236 -0.4345560074
thorax  -2.267469883 -3.920759916 5.43637991
lowerneck  0.3065220118 -5.425199986 -13.64500046
upperneck  7.87898016 -7.999149799 13.42249966
head  3.359110117 -3.986769915 6.085989952
lclavicle  0 -9.442270133e-015 7.951389973e-016
lhumerus  22.86429977 -24.39830017 76.2009964
lradius  1.904335841e-031 -2.973608758e-031 122.6360016
lwrist  -7.062250077e-031 -8.827812596e-032 19.40589905
lhand  -1.496451383e-031 -27.76390076 20.11240005
lfingers  90 7.125020027 -90
lthumb  89.89689403 5.08795885 91.16245106
rclavicle  0 -9.442270133e-015 7.951389973e-016
rhumerus  -20.08860016 3.978770018 -69.50789642
rradius  -1.997358411e-031 2.91194152e-031 124.4469986
rwrist  0 -1.765562519e-031 -12.43869972
rhand  -7.920061211e-032 -33.2840004 9.303460121
rfingers  -90 -7.125020027 -90
rthumb  -92.93752616 -24.25625642 -97.11982154
rfemur  -38.74509811 19.72719955 -4.961249828
rtibia  -0 0 57.0923996
rfoot  -0 -16.32500076 -11.39340019
rtoes  5.373923086 19.29304026 -105.8922705
lfemur  -0.7667469978 -8.705019951 -4.891449928
ltibia  -0 0 46.51599884
lfoot  5.018262744e-032 -15.83990002 -0.2005279958
ltoes  -4.250644065 -19.5611806 -102.515957
163
root  -2.479933378 36.76111116 2.628888859 0.8679962158 11.71400452 3.759994507
lowerback  16.13139915 -5.175230026 -7.308209896
upperback  4.982590199 -7.917439938 -0.187481001
thorax  -2.675909996 -3.946559906 5.252190113
lowerneck  0.7317150235 -5.393889904 -13.61590004
upperneck  7.425429821 -7.982110023 13.57149982
head  3.155610085 -3.990750074 6.143290043
lclavicle  0 -9.442270133e-015 7.951389973e-016
lhumerus  23.36219978 -24.72459984 76.28630066
lradius  1.896492397e-031 -2.978617234e-031 122.4850006
lwrist  -1.412450015e-030 -8.827812596e-032 19.78569984
lhand  -1.496451383e-031 -27.76390076 20.11240005
lfingers  90 7.125020027 -90
lthumb  89.89689403 5.08795885 91.16245106
rclavicle  0 -9.442270133e-015 7.951389973e-016
rhumerus  -18.64240074 3.452300072 -68.68730164
rradius  -2.033036591e-031 2.887145001e-031 125.1520004
rwrist  7.062250077e-031 -0 -12.21409988
rhand  -7.920061211e-032 -33.2840004 9.303460121
rfingers  -90 -7.125020027 -90
rthumb  -92.93752616 -24.25625642 -97.11982154
rfemur  -39.56259918 18.97500038 -3.723210096
rtibia  -0 0 58.5970993
rfoot  -0 -16.72270012 -12.00829983
rtoes  5.373923086 19.29304026 -105.8922705
lfemur  -0.1501400024 -9.984760284 -4.251719952
ltibia  -0 0 46.67869949
lfoot  5.23801392e-032 -18.55809975 0.6209880114
ltoes  -4.250644065 -19.5611806 -102.515957
164
root  -2.43804436 36.49799918 2.463555524 0.5549926758 11.75 3.089996338
lowerback  15.92790031 -5.284049988 -6.664010048
upperback  5.100820065 -7.932849884 0.01888930053
thorax  -2.501189947 -3.965610027 5.08743
lowerneck  0.9780349731 -5.407289982 -13.56980038
upperneck  6.738599777 -7.984109879 13.73400021
head  2.916870117 -3.998409986 6.19659996
lclavicle  0 -9.442270133e-015 7.951389973e-016
lhumerus  24.46290016 -25.02350044 76.18859863
lradius  1.884467947e-031 -2.986239206e-031 122.2539978
lwrist  -1.412450015e-030 8.827812596e-032 19.88829994
lhand  -1.496451383e-031 -27.76390076 20.11240005
lfingers  90 7.125020027 -90
lthumb  89.89689403 5.08795885 91.16245106
rclavicle  0 -9.442270133e-015 7.951389973e-016
rhumerus  -16.78230095 2.842509985 -67.78150177
rradius  -2.06660821e-031 2.863210531e-031 125.8209991
rwrist  1.412450015e-030 -0 -11.97270012
rhand  -7.920061211e-032 -33.2840004 9.303460121
rfingers  -90 -7.125020027 -90
rthumb  -92.93752616 -24.25625642 -97.11982154
rfemur  -40.30550003 18.48889923 -2.938740015
rtibia  -0 0 59.79999924
rfoot  -0 -17.30610085 -12.47500038
rtoes  5.373923086 19.29304026 -105.8922705
lfemur  0.3773170114 -11.04969978 -4.140520096
ltibia  -0 0 46.87490082
lfoot  4.730849349e-032 -21.09180069 2.700989962
ltoes  -4.250644065 -19.5611806 -102.515957
165
root  -2.38762221 36.26977815 2.284111188 0.3170013428 11.57400513 2.833999634
lowerback  15.77180004 -5.276140213 -6.486909866
upperback  5.227759838 -7.875939846 0.1374060065
thorax  -2.298140049 -3.950939894 5.078889847
lowerneck  1.237959981 -5.434219837 -13.39799976
upperneck  6.101389885 -7.996890068 13.72710037
head  2.681240082 -4.012979984 6.175570011
lclavicle  0 -9.442270133e-015 7.951389973e-016
lhumerus  25.40390015 -25.42630005 76.21469879
lradius  1.865615449e-031 -2.998053207e-031 121.8929977
lwrist  -7.062250077e-031 -0 19.52969933
lhand  -1.496451383e-031 -27.76390076 20.11240005
lfingers  90 7.125020027 -90
lthumb  89.89689403 5.08795885 91.16245106
rclavicle  0 -9.442270133e-015 7.951389973e-016
rhumerus  -15.02719975 2.144680023 -67.01580048
rradius  -2.090720912e-031 2.845651087e-031 126.3050003
rwrist  7.062250077e-031 -0 -11.66160011
rhand  -7.920061211e-032 -33.2840004 9.303460121
rfingers  -90 -7.125020027 -90
rthumb  -92.93752616 -24.25625642 -97.11982154
rfemur  -41.04370117 18.3118 -2.761499882
rtibia  -0 0 60.71500015
rfoot  -0 -17.71940041 -12.74090004
rtoes  5.373923086 19.29304026 -105.8922705
lfemur  0.8424959779 -11.59259987 -4.537720203
ltibia  -0 0 46.93040085
lfoot  4.802162207e-032 -23.19790077 5.1957798
ltoes  -4.250644065 -19.5611806 -102.515957
